<svg xmlns="http://www.w3.org/2000/svg" xmlns:xlink="http://www.w3.org/1999/xlink" width="500" zoomAndPan="magnify" viewBox="0 0 375 374.999991" height="500" preserveAspectRatio="xMidYMid meet" version="1.0"><defs><clipPath id="7338c0f78c"><path d="M 2 3 L 372 3 L 372 372 L 2 372 Z M 2 3 " clip-rule="nonzero"/></clipPath><clipPath id="e7e7804e59"><path d="M -68.316406 135.265625 L 239.527344 -68.1875 L 442.980469 239.65625 L 135.136719 443.109375 Z M -68.316406 135.265625 " clip-rule="nonzero"/></clipPath><clipPath id="6d643c4ab7"><path d="M -68.316406 135.265625 L 239.527344 -68.1875 L 442.980469 239.65625 L 135.136719 443.109375 Z M -68.316406 135.265625 " clip-rule="nonzero"/></clipPath></defs><g clip-path="url(#7338c0f78c)"><g clip-path="url(#e7e7804e59)"><g clip-path="url(#6d643c4ab7)"><path fill="#ffce01" d="M 346.214844 117.207031 C 352.261719 113.214844 353.9375 105 349.941406 98.957031 L 332.382812 72.386719 C 328.386719 66.34375 320.175781 64.667969 314.132812 68.660156 L 302.722656 76.203125 C 296.679688 80.195312 287.160156 79.695312 281.5625 75.09375 L 256.203125 57.894531 C 249.828125 54.457031 245.796875 45.835938 247.242188 38.742188 L 249.984375 25.328125 C 251.429688 18.234375 246.8125 11.238281 239.710938 9.789062 L 208.507812 3.417969 C 201.410156 1.96875 194.417969 6.589844 192.96875 13.6875 L 190.230469 27.101562 C 188.78125 34.203125 181.6875 40.546875 174.472656 41.207031 L 144.40625 47.09375 C 137.457031 49.136719 128.5 45.859375 124.507812 39.816406 L 116.964844 28.40625 C 112.972656 22.363281 104.757812 20.683594 98.714844 24.679688 L 72.144531 42.238281 C 66.101562 46.234375 64.425781 54.445312 68.421875 60.488281 L 75.960938 71.898438 C 79.953125 77.941406 79.453125 87.46875 74.855469 93.058594 L 57.652344 118.410156 C 54.21875 124.792969 45.597656 128.824219 38.503906 127.371094 L 25.089844 124.632812 C 17.988281 123.183594 10.996094 127.804688 9.546875 134.902344 L 3.175781 166.105469 C 1.726562 173.207031 6.347656 180.199219 13.449219 181.648438 L 26.867188 184.382812 C 33.964844 185.832031 40.308594 192.925781 40.972656 200.136719 L 46.855469 230.207031 C 48.898438 237.160156 45.621094 246.113281 39.578125 250.105469 L 28.171875 257.644531 C 22.128906 261.640625 20.453125 269.851562 24.445312 275.894531 L 42.007812 302.46875 C 46.003906 308.511719 54.214844 310.1875 60.257812 306.195312 L 71.664062 298.65625 C 77.707031 294.664062 87.230469 295.160156 92.824219 299.761719 L 118.1875 316.964844 C 124.5625 320.394531 128.597656 329.015625 127.148438 336.113281 L 124.40625 349.53125 C 122.957031 356.628906 127.578125 363.621094 134.675781 365.070312 L 165.875 371.445312 C 172.972656 372.894531 179.964844 368.269531 181.414062 361.171875 L 184.15625 347.753906 C 185.609375 340.65625 192.695312 334.308594 199.90625 333.652344 L 229.976562 327.765625 C 236.929688 325.726562 245.878906 329 249.875 335.046875 L 257.417969 346.457031 C 261.410156 352.5 269.625 354.175781 275.667969 350.183594 L 302.238281 332.621094 C 308.28125 328.628906 309.957031 320.414062 305.964844 314.371094 L 298.421875 302.957031 C 294.425781 296.914062 294.925781 287.398438 299.523438 281.800781 L 316.730469 256.445312 C 320.160156 250.070312 328.78125 246.03125 335.875 247.480469 L 349.300781 250.21875 C 356.394531 251.671875 363.390625 247.042969 364.835938 239.949219 L 371.207031 208.75 C 372.65625 201.65625 368.035156 194.65625 360.9375 193.207031 L 347.523438 190.46875 C 340.421875 189.019531 334.078125 181.925781 333.417969 174.714844 L 327.527344 144.648438 C 325.488281 137.695312 328.761719 128.742188 334.808594 124.746094 Z M 229.054688 250.777344 C 194.070312 273.894531 146.964844 264.277344 123.847656 229.296875 C 100.722656 194.308594 110.339844 147.203125 145.324219 124.085938 C 180.308594 100.964844 227.414062 110.578125 250.539062 145.566406 C 273.65625 180.550781 264.035156 227.65625 229.054688 250.777344 Z M 229.054688 250.777344 " fill-opacity="1" fill-rule="nonzero"/></g></g></g></svg>