<svg xmlns="http://www.w3.org/2000/svg" xmlns:xlink="http://www.w3.org/1999/xlink" width="500" zoomAndPan="magnify" viewBox="0 0 375 374.999991" height="500" preserveAspectRatio="xMidYMid meet" version="1.0"><defs><clipPath id="f1a08c3980"><path d="M 11 11 L 364 11 L 364 364 L 11 364 Z M 11 11 " clip-rule="nonzero"/></clipPath><clipPath id="6dd27ee717"><path d="M -40.328125 74.0625 L 301.003906 -40.355469 L 415.421875 300.980469 L 74.089844 415.398438 Z M -40.328125 74.0625 " clip-rule="nonzero"/></clipPath><clipPath id="74cfbaddb8"><path d="M -40.328125 74.0625 L 301.003906 -40.355469 L 415.421875 300.980469 L 74.089844 415.398438 Z M -40.328125 74.0625 " clip-rule="nonzero"/></clipPath></defs><g clip-path="url(#f1a08c3980)"><g clip-path="url(#6dd27ee717)"><g clip-path="url(#74cfbaddb8)"><path fill="#fe074c" d="M 354.640625 161.152344 C 361.335938 158.910156 364.976562 151.59375 362.734375 144.898438 L 352.867188 115.464844 C 350.621094 108.769531 343.308594 105.128906 336.613281 107.371094 L 323.972656 111.609375 C 317.277344 113.851562 308.4375 110.988281 304.320312 105.25 L 284.757812 82.683594 C 279.613281 77.84375 277.980469 68.714844 281.125 62.398438 L 287.074219 50.449219 C 290.21875 44.128906 287.625 36.382812 281.300781 33.234375 L 253.511719 19.398438 C 247.191406 16.25 239.445312 18.847656 236.296875 25.167969 L 230.347656 37.117188 C 227.199219 43.4375 218.925781 47.632812 211.964844 46.441406 L 182.167969 44.4375 C 175.109375 44.613281 167.5 39.28125 165.253906 32.585938 L 161.015625 19.945312 C 158.773438 13.25 151.457031 9.609375 144.761719 11.851562 L 115.328125 21.71875 C 108.632812 23.964844 104.992188 31.277344 107.234375 37.972656 L 111.472656 50.613281 C 113.71875 57.308594 110.855469 66.152344 105.121094 70.265625 L 82.550781 89.824219 C 77.710938 94.96875 68.582031 96.605469 62.261719 93.453125 L 50.316406 87.507812 C 43.996094 84.359375 36.246094 86.953125 33.101562 93.277344 L 19.265625 121.066406 C 16.117188 127.390625 18.710938 135.136719 25.035156 138.28125 L 36.984375 144.230469 C 43.308594 147.378906 47.503906 155.648438 46.316406 162.609375 L 44.308594 192.410156 C 44.484375 199.46875 39.152344 207.078125 32.457031 209.324219 L 19.820312 213.558594 C 13.125 215.804688 9.484375 223.117188 11.726562 229.8125 L 21.59375 259.253906 C 23.839844 265.949219 31.152344 269.589844 37.847656 267.34375 L 50.484375 263.109375 C 57.179688 260.863281 66.023438 263.722656 70.136719 269.460938 L 89.703125 292.035156 C 94.851562 296.867188 96.484375 306 93.335938 312.320312 L 87.386719 324.273438 C 84.234375 330.589844 86.832031 338.335938 93.15625 341.484375 L 120.941406 355.320312 C 127.261719 358.46875 135.007812 355.871094 138.15625 349.550781 L 144.109375 337.597656 C 147.257812 331.28125 155.527344 327.082031 162.484375 328.273438 L 192.285156 330.28125 C 199.34375 330.105469 206.953125 335.4375 209.199219 342.136719 L 213.4375 354.773438 C 215.679688 361.46875 222.996094 365.113281 229.691406 362.867188 L 259.125 353 C 265.820312 350.757812 269.460938 343.441406 267.21875 336.746094 L 262.980469 324.101562 C 260.734375 317.40625 263.59375 308.566406 269.332031 304.453125 L 291.902344 284.890625 C 296.734375 279.746094 305.867188 278.109375 312.1875 281.257812 L 324.144531 287.207031 C 330.460938 290.355469 338.210938 287.753906 341.355469 281.4375 L 355.191406 253.648438 C 358.335938 247.332031 355.742188 239.578125 349.421875 236.429688 L 337.472656 230.484375 C 331.152344 227.335938 326.957031 219.058594 328.144531 212.101562 L 330.148438 182.304688 C 329.972656 175.246094 335.304688 167.632812 342.003906 165.390625 Z M 210.746094 257.535156 C 171.992188 270.527344 130.042969 249.640625 117.050781 210.882812 C 104.058594 172.125 124.945312 130.171875 163.699219 117.183594 C 202.457031 104.191406 244.410156 125.078125 257.402344 163.835938 C 270.394531 202.589844 249.503906 244.542969 210.746094 257.535156 Z M 210.746094 257.535156 " fill-opacity="1" fill-rule="nonzero"/></g></g></g></svg>