<svg xmlns="http://www.w3.org/2000/svg" xmlns:xlink="http://www.w3.org/1999/xlink" width="500" zoomAndPan="magnify" viewBox="0 0 375 374.999991" height="500" preserveAspectRatio="xMidYMid meet" version="1.0"><defs><clipPath id="61ac0e8d0e"><path d="M 5 5 L 370 5 L 370 370 L 5 370 Z M 5 5 " clip-rule="nonzero"/></clipPath><clipPath id="fb314817b8"><path d="M -66.878906 153.265625 L 221.738281 -66.886719 L 441.894531 221.734375 L 153.273438 441.886719 Z M -66.878906 153.265625 " clip-rule="nonzero"/></clipPath><clipPath id="19e26fba17"><path d="M -66.878906 153.265625 L 221.738281 -66.886719 L 441.894531 221.734375 L 153.273438 441.886719 Z M -66.878906 153.265625 " clip-rule="nonzero"/></clipPath></defs><g clip-path="url(#61ac0e8d0e)"><g clip-path="url(#fb314817b8)"><g clip-path="url(#19e26fba17)"><path fill="#2d8ef1" d="M 338.507812 108.015625 C 344.171875 103.695312 345.269531 95.527344 340.949219 89.867188 L 321.960938 64.972656 C 317.644531 59.308594 309.476562 58.210938 303.8125 62.53125 L 293.125 70.683594 C 287.460938 75.003906 278.089844 75.144531 272.292969 71.003906 L 246.28125 55.816406 C 239.796875 52.867188 235.269531 44.683594 236.21875 37.628906 L 238.015625 24.289062 C 238.960938 17.234375 233.96875 10.679688 226.90625 9.730469 L 195.878906 5.554688 C 188.820312 4.605469 182.269531 9.601562 181.320312 16.660156 L 179.523438 30 C 178.574219 37.058594 172.039062 43.753906 165.007812 44.878906 L 135.90625 52.652344 C 129.226562 55.117188 120.226562 52.496094 115.90625 46.835938 L 107.753906 36.144531 C 103.433594 30.484375 95.265625 29.382812 89.605469 33.703125 L 64.710938 52.691406 C 59.046875 57.011719 57.949219 65.179688 62.269531 70.839844 L 70.421875 81.53125 C 74.742188 87.191406 74.882812 96.566406 70.746094 102.355469 L 55.554688 128.367188 C 52.609375 134.851562 44.425781 139.382812 37.367188 138.429688 L 24.03125 136.632812 C 16.96875 135.683594 10.417969 140.679688 9.46875 147.742188 L 5.292969 178.769531 C 4.34375 185.828125 9.339844 192.378906 16.398438 193.328125 L 29.742188 195.121094 C 36.800781 196.070312 43.496094 202.605469 44.625 209.636719 L 52.394531 238.738281 C 54.859375 245.421875 52.242188 254.421875 46.578125 258.738281 L 35.890625 266.890625 C 30.230469 271.210938 29.128906 279.375 33.449219 285.039062 L 52.441406 309.9375 C 56.761719 315.597656 64.925781 316.699219 70.589844 312.378906 L 81.273438 304.226562 C 86.9375 299.910156 96.308594 299.761719 102.101562 303.90625 L 128.121094 319.09375 C 134.605469 322.035156 139.136719 330.222656 138.183594 337.277344 L 136.386719 350.625 C 135.433594 357.679688 140.433594 364.230469 147.492188 365.179688 L 178.515625 369.359375 C 185.574219 370.308594 192.125 365.308594 193.078125 358.253906 L 194.871094 344.90625 C 195.824219 337.851562 202.355469 331.15625 209.386719 330.03125 L 238.488281 322.261719 C 245.171875 319.796875 254.167969 322.414062 258.488281 328.078125 L 266.644531 338.769531 C 270.964844 344.429688 279.128906 345.53125 284.792969 341.210938 L 309.6875 322.222656 C 315.347656 317.902344 316.449219 309.734375 312.128906 304.074219 L 303.972656 293.378906 C 299.652344 287.71875 299.507812 278.347656 303.648438 272.554688 L 318.839844 246.542969 C 321.78125 240.058594 329.964844 235.523438 337.023438 236.476562 L 350.371094 238.269531 C 357.425781 239.222656 363.980469 234.21875 364.929688 227.167969 L 369.105469 196.140625 C 370.054688 189.085938 365.058594 182.527344 357.996094 181.578125 L 344.65625 179.785156 C 337.597656 178.832031 330.902344 172.296875 329.777344 165.269531 L 322 136.167969 C 319.539062 129.488281 322.15625 120.488281 327.824219 116.164062 Z M 232.464844 246.808594 C 199.691406 271.808594 152.847656 265.503906 127.847656 232.726562 C 102.84375 199.949219 109.148438 153.109375 141.921875 128.105469 C 174.699219 103.105469 221.542969 109.40625 246.546875 142.183594 C 271.550781 174.960938 265.242188 221.804688 232.464844 246.808594 Z M 232.464844 246.808594 " fill-opacity="1" fill-rule="nonzero"/></g></g></g></svg>